<svg width="45" height="45" viewBox="0 0 45 45" fill="none" xmlns="http://www.w3.org/2000/svg">
<circle cx="22.5" cy="22.5" r="22.5" fill="#9B51E0"/>
<path d="M34.4586 19.3395H32.6251C32.4854 19.3395 32.3512 19.3929 32.2504 19.4883L31.859 19.8589C31.1992 18.3501 30.2528 16.858 28.9744 15.3133C28.2833 14.4786 27.2614 14 26.1703 14H18.8296C17.7384 14 16.7165 14.4787 16.0258 15.3134C14.707 16.9067 13.7794 18.3628 13.1353 19.8536L12.7497 19.4883C12.6489 19.3929 12.5146 19.3395 12.3749 19.3395H10.5415C10.2424 19.3395 10 19.5791 10 19.8748V21.1138C10 21.3963 10.2222 21.6301 10.5075 21.6479L12.392 21.7652C12.1073 22.5877 11.8849 23.8132 11.8849 25.5415C11.8849 27.0411 12.188 28.0267 12.7154 28.6648V31.5518C12.7154 31.7994 12.9184 32 13.1689 32H15.2549C15.5055 32 15.7086 31.7994 15.7086 31.5518V29.759H29.2914V31.5518C29.2914 31.7994 29.4945 32 29.745 32H31.831C32.0815 32 32.2846 31.7994 32.2846 31.5518V28.6648C32.8119 28.0267 33.1151 27.0411 33.1151 25.5415C33.1151 23.8132 32.8928 22.5877 32.608 21.7652L34.4926 21.6479C34.7778 21.6301 35 21.3963 35 21.1138V19.8748C35 19.5791 34.7577 19.3395 34.4586 19.3395ZM17.5735 16.5647C17.883 16.1908 18.3409 15.9763 18.8296 15.9763H26.1703C26.6591 15.9763 27.1171 16.1908 27.4266 16.5647C28.3209 17.6453 29.0272 18.6795 29.5731 19.7096L15.4144 19.7122C15.9483 18.705 16.6586 17.67 17.5735 16.5647ZM16.0305 27.5666C14.9923 27.5666 14.1506 27.2314 14.1506 26.4183C14.1506 25.6052 14.456 24.9459 15.4942 24.9459C16.5325 24.9459 17.9103 25.6052 17.9103 26.4183C17.9103 27.2314 17.0687 27.5666 16.0305 27.5666ZM24.4706 27.3971H20.5295C19.9353 27.3971 19.452 26.9194 19.452 26.3322C19.452 26.1675 19.5871 26.034 19.7539 26.034H25.2463C25.413 26.034 25.548 26.1675 25.548 26.3322C25.548 26.9195 25.0647 27.3971 24.4706 27.3971ZM28.9695 27.5666C27.9313 27.5666 27.0896 27.2314 27.0896 26.4183C27.0896 25.6052 28.4676 24.9459 29.5057 24.9459C30.5439 24.9459 30.8494 25.6052 30.8494 26.4183C30.8494 27.2314 30.0078 27.5666 28.9695 27.5666Z" fill="white"/>
</svg>
