<svg width="30" height="22" viewBox="0 0 30 22" fill="none" xmlns="http://www.w3.org/2000/svg">
<path d="M11.1382 10.7894C11.1382 11.5447 11.059 11.922 10.5121 11.922C9.94098 11.922 9.85085 11.579 9.85085 10.8933V4.86318H5.41674V11.9456C5.41674 13.1776 5.71299 14.1923 6.40715 14.9898C7.10116 15.7865 7.95884 16.185 9.03041 16.185C9.75509 16.185 10.4827 15.9623 11.2382 15.5151C10.822 17.0944 9.88648 17.8838 8.48277 17.8838C8.04349 17.8838 7.62402 17.7604 6.93107 17.5133C6.93107 17.5133 6.27523 17.3047 5.41674 16.8044C5.41674 17.893 5.41674 20.484 5.41674 20.484C5.41674 20.484 6.27067 21.0198 6.93107 21.269C7.74 21.5769 8.53634 21.7311 9.33817 21.7311C11.1659 21.7311 12.6944 21.03 13.9821 19.6283C15.0615 18.4498 15.5723 16.9013 15.5723 14.984V4.86318H11.1382V10.7894ZM21.1917 0.323C15.9295 0.797744 16.2872 6.43377 16.2872 6.43377C16.2872 6.43377 16.2872 15.2586 16.2872 16.2896C19.148 16.2896 20.5781 14.9141 20.5781 13.0094C20.5781 12.1511 20.5781 11.7221 20.5781 11.7221H22.6884V7.43517H20.5781V6.86143C20.5781 6.19137 20.7553 5.67557 21.0522 5.31324C21.3427 4.95963 21.7673 4.77988 22.2966 4.77183C22.6495 4.77585 23.2979 4.89296 23.4291 5.40259L23.4387 5.4431V9.91124C23.4387 11.5523 23.7474 12.8694 24.4108 13.8632C24.9347 14.6411 25.6191 15.2571 26.4864 15.7121C27.354 16.1662 28.2662 16.3925 29.2459 16.3925C29.3538 16.3925 29.5504 16.3894 29.732 16.3813V11.8411C28.825 11.8411 28.436 11.6731 28.1472 11.326C27.8578 10.9795 27.718 10.2933 27.718 9.4357H29.2625V4.86318H27.7998C27.5247 3.14852 26.4967 0.565671 22.6835 0.277927C22.6835 0.277927 22.232 0.260891 21.8783 0.273366C21.6023 0.283293 21.1917 0.323 21.1917 0.323ZM6.20049 15.9328L6.20371 15.9396C5.71018 16.242 5.13067 16.4521 4.70183 16.5632V16.5865L4.68697 16.5653C4.42433 16.623 4.16398 16.6546 3.91353 16.6546C2.83273 16.6546 1.96674 16.2527 1.2671 15.4487C0.567325 14.6445 0.26786 13.6211 0.26786 12.3783V0.565805H4.70183V12.3785C4.70183 13.6212 4.99768 14.6446 5.69799 15.4487C5.85697 15.6314 6.02344 15.791 6.20049 15.9328Z" fill="#FF00BF"/>
<mask id="mask0" mask-type="alpha" maskUnits="userSpaceOnUse" x="0" y="0" width="30" height="22">
<rect width="30" height="22" fill="#FF00BF"/>
</mask>
<g mask="url(#mask0)">
<path opacity="0.16" d="M11.1382 10.7894C11.1382 11.5447 11.059 11.922 10.5121 11.922C9.94098 11.922 9.85085 11.579 9.85085 10.8933V4.86318H5.41674V11.9456C5.41674 13.1776 5.71299 14.1923 6.40715 14.9898C7.10116 15.7865 7.95884 16.185 9.03041 16.185C9.75509 16.185 10.4827 15.9623 11.2382 15.5151C10.822 17.0944 9.88648 17.8838 8.48277 17.8838C8.04349 17.8838 7.62402 17.7604 6.93107 17.5133C6.93107 17.5133 6.27523 17.3047 5.41674 16.8044C5.41674 17.893 5.41674 20.484 5.41674 20.484C5.41674 20.484 6.27067 21.0198 6.93107 21.269C7.74 21.5769 8.53634 21.7311 9.33817 21.7311C11.1659 21.7311 12.6944 21.03 13.9821 19.6283C15.0615 18.4498 15.5723 16.9013 15.5723 14.984V4.86318H11.1382V10.7894ZM21.1917 0.323C15.9295 0.797744 16.2872 6.43377 16.2872 6.43377C16.2872 6.43377 16.2872 15.2586 16.2872 16.2896C19.148 16.2896 20.5781 14.9141 20.5781 13.0094C20.5781 12.1511 20.5781 11.7221 20.5781 11.7221H22.6884V7.43517H20.5781V6.86143C20.5781 6.19137 20.7553 5.67557 21.0522 5.31324C21.3427 4.95963 21.7673 4.77988 22.2966 4.77183C22.6495 4.77585 23.2979 4.89296 23.4291 5.40259L23.4387 5.4431V9.91124C23.4387 11.5523 23.7474 12.8694 24.4108 13.8632C24.9347 14.6411 25.6191 15.2571 26.4864 15.7121C27.354 16.1662 28.2662 16.3925 29.2459 16.3925C29.3538 16.3925 29.5504 16.3894 29.732 16.3813V11.8411C28.825 11.8411 28.436 11.6731 28.1472 11.326C27.8578 10.9795 27.718 10.2933 27.718 9.4357H29.2625V4.86318H27.7998C27.5247 3.14852 26.4967 0.565671 22.6835 0.277927C22.6835 0.277927 22.232 0.260891 21.8783 0.273366C21.6023 0.283293 21.1917 0.323 21.1917 0.323ZM6.20049 15.9328L6.20371 15.9396C5.71018 16.242 5.13067 16.4521 4.70183 16.5632V16.5865L4.68697 16.5653C4.42433 16.623 4.16398 16.6546 3.91353 16.6546C2.83273 16.6546 1.96674 16.2527 1.2671 15.4487C0.567325 14.6445 0.26786 13.6211 0.26786 12.3783V0.565805H4.70183V12.3785C4.70183 13.6212 4.99768 14.6446 5.69799 15.4487C5.85697 15.6314 6.02344 15.791 6.20049 15.9328Z" fill="#FF00BF"/>
</g>
</svg>
